<svg width="195" height="195" viewBox="0 0 195 195" fill="none" xmlns="http://www.w3.org/2000/svg">
<g clip-path="url(#clip0_1_2)">
<rect width="195" height="195" rx="48" fill="white"/>
<path d="M130.914 52.5186V76.4478H62V52.5186H130.914ZM77.6453 36L109.383 25V132.083C109.383 135.025 109.83 137.318 110.724 138.963C111.618 140.558 112.86 141.68 114.449 142.328C116.088 142.976 117.976 143.3 120.111 143.3C121.601 143.3 123.091 143.175 124.581 142.926C126.071 142.627 127.214 142.403 128.008 142.253L133 165.958C131.411 166.457 129.176 167.03 126.295 167.678C123.414 168.376 119.913 168.8 115.79 168.949C108.141 169.248 101.436 168.226 95.6747 165.883C89.9629 163.54 85.5177 159.901 82.3389 154.966C79.1602 150.03 77.5957 143.799 77.6453 136.271V36Z" fill="#1E1E1E"/>
</g>
<defs>
<clipPath id="clip0_1_2">
<rect width="195" height="195" fill="white"/>
</clipPath>
</defs>
</svg>
